<svg viewBox="0 0 1300 900" xmlns="http://www.w3.org/2000/svg">
  <defs>
    <linearGradient id="bgGradient" x1="0%" y1="0%" x2="0%" y2="100%">
      <stop offset="0%" style="stop-color:#001a33;stop-opacity:1" />
      <stop offset="100%" style="stop-color:#000d1a;stop-opacity:1" />
    </linearGradient>
    
    <linearGradient id="arrowGradient" x1="0%" y1="0%" x2="100%" y2="0%">
      <stop offset="0%" style="stop-color:#00bcd4;stop-opacity:0.6" />
      <stop offset="100%" style="stop-color:#00bcd4;stop-opacity:1" />
    </linearGradient>
    
    <filter id="glow">
      <feGaussianBlur stdDeviation="3" result="coloredBlur"/>
      <feMerge>
        <feMergeNode in="coloredBlur"/>
        <feMergeNode in="SourceGraphic"/>
      </feMerge>
    </filter>
    
    <linearGradient id="cubeGradient1" x1="0%" y1="0%" x2="100%" y2="100%">
      <stop offset="0%" style="stop-color:#00bcd4;stop-opacity:0.3" />
      <stop offset="100%" style="stop-color:#00bcd4;stop-opacity:0.1" />
    </linearGradient>
  </defs>
  
  <!-- Background -->
  <rect width="1300" height="900" fill="url(#bgGradient)"/>
  
  <!-- Title -->
  <text x="650" y="80" font-family="Arial, sans-serif" font-size="48" font-weight="bold" fill="#ffffff" text-anchor="middle">AI Model Pipeline</text>
  
  <!-- Stage 1: Training -->
  <g transform="translate(150, 150)">
    <text x="100" y="30" font-family="Arial, sans-serif" font-size="24" fill="#4dd0e1" text-anchor="middle">Training</text>
    
    <!-- 3D Cube -->
    <g opacity="0.8">
      <!-- Front face -->
      <path d="M 30 70 L 170 70 L 170 210 L 30 210 Z" fill="url(#cubeGradient1)" stroke="#00bcd4" stroke-width="2"/>
      <!-- Top face -->
      <path d="M 30 70 L 70 40 L 210 40 L 170 70 Z" fill="url(#cubeGradient1)" stroke="#00bcd4" stroke-width="2"/>
      <!-- Right face -->
      <path d="M 170 70 L 210 40 L 210 180 L 170 210 Z" fill="url(#cubeGradient1)" stroke="#00bcd4" stroke-width="2"/>
      
      <!-- Training icons: Large Database in center -->
      <!-- Database icon with proper proportions -->
      <ellipse cx="100" cy="125" rx="40" ry="12" fill="none" stroke="#4dd0e1" stroke-width="2.5"/>
      <path d="M 60 125 L 60 165 Q 60 177 100 177 Q 140 177 140 165 L 140 125" stroke="#4dd0e1" stroke-width="2.5" fill="none"/>
      <ellipse cx="100" cy="140" rx="40" ry="12" fill="none" stroke="#4dd0e1" stroke-width="2"/>
      <ellipse cx="100" cy="155" rx="40" ry="12" fill="none" stroke="#4dd0e1" stroke-width="2"/>
    </g>
    
    <!-- Info boxes -->
    <rect x="10" y="270" width="180" height="80" fill="#001a33" stroke="#00bcd4" stroke-width="1.5" rx="8"/>
    <text x="100" y="295" font-family="Arial, sans-serif" font-size="16" fill="#ffffff" text-anchor="middle" font-weight="bold">Mobase Dataset</text>
    <text x="100" y="320" font-family="Arial, sans-serif" font-size="13" fill="#b0bec5" text-anchor="middle">Image 路 Sound 路 Text</text>
    
    <rect x="10" y="370" width="180" height="80" fill="#001a33" stroke="#00bcd4" stroke-width="1.5" rx="8"/>
    <text x="100" y="395" font-family="Arial, sans-serif" font-size="16" fill="#ffffff" text-anchor="middle" font-weight="bold">Framework</text>
    <text x="100" y="420" font-family="Arial, sans-serif" font-size="13" fill="#b0bec5" text-anchor="middle">PyTorch 路 ONNX 路 TensorFlow</text>
  </g>
  
  <!-- Arrow 1 with glow effect -->
  <g filter="url(#glow)">
    <path d="M 360 280 L 470 280" stroke="url(#arrowGradient)" stroke-width="4" fill="none" stroke-linecap="round"/>
    <path d="M 455 270 L 475 280 L 455 290" stroke="#00bcd4" stroke-width="4" fill="#00bcd4" stroke-linejoin="round"/>
  </g>
  
  <!-- Stage 2: Convert -->
  <g transform="translate(500, 150)">
    <text x="100" y="30" font-family="Arial, sans-serif" font-size="24" fill="#4dd0e1" text-anchor="middle">Convert</text>
    
    <!-- 3D Cube -->
    <g opacity="0.8">
      <!-- Front face -->
      <path d="M 30 70 L 170 70 L 170 210 L 30 210 Z" fill="url(#cubeGradient1)" stroke="#00bcd4" stroke-width="2"/>
      <!-- Top face -->
      <path d="M 30 70 L 70 40 L 210 40 L 170 70 Z" fill="url(#cubeGradient1)" stroke="#00bcd4" stroke-width="2"/>
      <!-- Right face -->
      <path d="M 170 70 L 210 40 L 210 180 L 170 210 Z" fill="url(#cubeGradient1)" stroke="#00bcd4" stroke-width="2"/>
      
      <!-- Chart analysis icon in center -->
      <!-- Chart frame -->
      <rect x="65" y="115" width="70" height="75" fill="none" stroke="#4dd0e1" stroke-width="2.5" rx="3"/>
      
      <!-- Bar chart -->
      <rect x="75" y="160" width="12" height="20" fill="#4dd0e1" opacity="0.6"/>
      <rect x="93" y="150" width="12" height="30" fill="#4dd0e1" opacity="0.6"/>
      <rect x="111" y="140" width="12" height="40" fill="#4dd0e1" opacity="0.6"/>
      
      <!-- Trend line -->
      <path d="M 73 175 L 81 160 L 99 150 L 117 135" stroke="#00e5ff" stroke-width="2.5" fill="none" stroke-linecap="round"/>
      <circle cx="81" cy="160" r="3" fill="#00e5ff"/>
      <circle cx="99" cy="150" r="3" fill="#00e5ff"/>
      <circle cx="117" cy="135" r="3" fill="#00e5ff"/>
    </g>
    
    <!-- Info box -->
    <rect x="-10" y="270" width="220" height="380" fill="#001a33" stroke="#00bcd4" stroke-width="1.5" rx="8"/>
    <text x="100" y="295" font-family="Arial, sans-serif" font-size="16" fill="#ffffff" text-anchor="middle" font-weight="bold">Mobase AI Hub</text>
    <text x="100" y="325" font-family="Arial, sans-serif" font-size="13" fill="#b0bec5" text-anchor="middle">Body Keypoint Model</text>
    <text x="100" y="350" font-family="Arial, sans-serif" font-size="13" fill="#b0bec5" text-anchor="middle">Face Landmark Model</text>
    <text x="100" y="375" font-family="Arial, sans-serif" font-size="13" fill="#b0bec5" text-anchor="middle">Gaze Estimation Model</text>
    <text x="100" y="400" font-family="Arial, sans-serif" font-size="13" fill="#b0bec5" text-anchor="middle">Face Identification Model</text>
    <text x="100" y="425" font-family="Arial, sans-serif" font-size="13" fill="#b0bec5" text-anchor="middle">Finger Print Recognition Model</text>
    <text x="100" y="450" font-family="Arial, sans-serif" font-size="13" fill="#b0bec5" text-anchor="middle">Palm Print Recognition Model</text>
    <text x="100" y="475" font-family="Arial, sans-serif" font-size="13" fill="#b0bec5" text-anchor="middle">Text Recognition Model</text>
    <text x="100" y="500" font-family="Arial, sans-serif" font-size="13" fill="#b0bec5" text-anchor="middle">Vehicle Detect Model</text>
    <text x="100" y="525" font-family="Arial, sans-serif" font-size="13" fill="#b0bec5" text-anchor="middle">Line Detect Model</text>
    <text x="100" y="550" font-family="Arial, sans-serif" font-size="13" fill="#b0bec5" text-anchor="middle">Sensor Data Processing Model</text>
    <text x="100" y="575" font-family="Arial, sans-serif" font-size="13" fill="#b0bec5" text-anchor="middle">Action Recognition Model</text>
  </g>
  
  <!-- Arrow 2 with glow effect -->
  <g filter="url(#glow)">
    <path d="M 730 280 L 840 280" stroke="url(#arrowGradient)" stroke-width="4" fill="none" stroke-linecap="round"/>
    <path d="M 825 270 L 845 280 L 825 290" stroke="#00bcd4" stroke-width="4" fill="#00bcd4" stroke-linejoin="round"/>
  </g>
  
  <!-- Stage 3: Application -->
  <g transform="translate(870, 150)">
    <text x="100" y="30" font-family="Arial, sans-serif" font-size="24" fill="#4dd0e1" text-anchor="middle">Application</text>
    
    <!-- 3D Cube -->
    <g opacity="0.8">
      <!-- Front face -->
      <path d="M 30 70 L 170 70 L 170 210 L 30 210 Z" fill="url(#cubeGradient1)" stroke="#00bcd4" stroke-width="2"/>
      <!-- Top face -->
      <path d="M 30 70 L 70 40 L 210 40 L 170 70 Z" fill="url(#cubeGradient1)" stroke="#00bcd4" stroke-width="2"/>
      <!-- Right face -->
      <path d="M 170 70 L 210 40 L 210 180 L 170 210 Z" fill="url(#cubeGradient1)" stroke="#00bcd4" stroke-width="2"/>
      
      <!-- Mobile device and chip icons -->
      <!-- Smartphone -->
      <rect x="60" y="115" width="35" height="55" rx="4" fill="none" stroke="#4dd0e1" stroke-width="2"/>
      <line x1="65" y1="125" x2="90" y2="125" stroke="#4dd0e1" stroke-width="1"/>
      <circle cx="77.5" cy="163" r="3" fill="#4dd0e1"/>
      
      <!-- Chip/Processor -->
      <rect x="120" y="135" width="40" height="40" rx="2" fill="none" stroke="#4dd0e1" stroke-width="2"/>
      <rect x="130" y="145" width="20" height="20" fill="none" stroke="#4dd0e1" stroke-width="1.5"/>
      <!-- Chip pins -->
      <line x1="118" y1="145" x2="122" y2="145" stroke="#4dd0e1" stroke-width="2"/>
      <line x1="118" y1="155" x2="122" y2="155" stroke="#4dd0e1" stroke-width="2"/>
      <line x1="118" y1="165" x2="122" y2="165" stroke="#4dd0e1" stroke-width="2"/>
      <line x1="158" y1="145" x2="162" y2="145" stroke="#4dd0e1" stroke-width="2"/>
      <line x1="158" y1="155" x2="162" y2="155" stroke="#4dd0e1" stroke-width="2"/>
      <line x1="158" y1="165" x2="162" y2="165" stroke="#4dd0e1" stroke-width="2"/>
    </g>
    
    <!-- Info boxes -->
    <rect x="-10" y="270" width="220" height="180" fill="#001a33" stroke="#00bcd4" stroke-width="1.5" rx="8"/>
    <text x="100" y="295" font-family="Arial, sans-serif" font-size="16" fill="#ffffff" text-anchor="middle" font-weight="bold">Semiconductor Platform</text>
    <text x="100" y="325" font-family="Arial, sans-serif" font-size="13" fill="#b0bec5" text-anchor="middle">Texas Instruments</text>
    <text x="100" y="350" font-family="Arial, sans-serif" font-size="13" fill="#b0bec5" text-anchor="middle">Renesas</text>
    <text x="100" y="375" font-family="Arial, sans-serif" font-size="13" fill="#b0bec5" text-anchor="middle">STMicroelectronics</text>
    <text x="100" y="400" font-family="Arial, sans-serif" font-size="13" fill="#b0bec5" text-anchor="middle">Android</text>
    <text x="100" y="425" font-family="Arial, sans-serif" font-size="13" fill="#b0bec5" text-anchor="middle">Qualcomm</text>
    
    <rect x="-10" y="470" width="220" height="180" fill="#001a33" stroke="#00bcd4" stroke-width="1.5" rx="8"/>
    <text x="100" y="490" font-family="Arial, sans-serif" font-size="15" fill="#ffffff" text-anchor="middle" font-weight="bold">Customer Application</text>
    <text x="100" y="508" font-family="Arial, sans-serif" font-size="15" fill="#ffffff" text-anchor="middle" font-weight="bold">System</text>
    <text x="100" y="538" font-family="Arial, sans-serif" font-size="13" fill="#b0bec5" text-anchor="middle">Tesla App</text>
    <text x="100" y="563" font-family="Arial, sans-serif" font-size="13" fill="#b0bec5" text-anchor="middle">Pleos App</text>
    <text x="100" y="588" font-family="Arial, sans-serif" font-size="13" fill="#b0bec5" text-anchor="middle">AAOS App</text>
    <text x="100" y="613" font-family="Arial, sans-serif" font-size="13" fill="#b0bec5" text-anchor="middle">Other Applications</text>
  </g>
</svg>